<?xml version="1.0" encoding="UTF-8"?><svg id="Layer_2" xmlns="http://www.w3.org/2000/svg" viewBox="0 0 344.35 49.53"><defs><style>.cls-1{fill:#fff;}</style></defs><g id="Layer_1-2"><g id="SvgjsG1427"><path class="cls-1" d="M32.44,38.36l-2.66-6.29H11.94l-2.66,6.29H0L16.87,.38h7.98l16.87,37.98s-9.28,0-9.28,0ZM14.97,24.96h11.83l-5.91-14-5.91,14ZM54.8,.38V38.36h-8.73V.38h8.73Zm20.62,0c10.74,0,19.26,8.46,19.26,18.72,0,10.8-8.52,19.26-19.26,19.26h-14.11V.38h14.11Zm-.05,29.73c6.89,0,10.36-4.99,10.36-11.01,0-5.48-3.47-10.47-10.36-10.47h-5.32V30.11h5.32ZM126.2,.38V8.41h-9.22v29.95h-8.73V8.41h-9.22V.38h27.18Zm30.44,29.95h14.43v8.03h-23.17V.38h8.73V30.33Zm32.82-20.67c6.4,0,15.35,4.83,13.56,17.58h-19.69c.98,2.93,3.53,4.45,6.94,4.45s4.56-.76,6.51-1.57l4.72,4.56c-2.5,2.44-5.86,4.23-11.56,4.23-7,0-15.35-4.83-15.35-14.54s8.46-14.7,14.87-14.7Zm0,7.32c-2.44,0-4.94,1.41-6.02,4.23h11.99c-.87-2.82-3.53-4.23-5.97-4.23Zm38.74-6.84h8.57v28.21h-8.57v-2.82c-.38,.98-2.93,3.36-7.27,3.36-6.46,0-13.89-4.61-13.89-14.7s7.43-14.54,13.89-14.54c4.34,0,6.89,2.5,7.27,3.09,0,0,0-2.6,0-2.6Zm-6.02,21.21c3.53,0,6.4-2.44,6.4-7.16s-2.88-7-6.4-7-6.84,2.5-6.84,7,3.15,7.16,6.84,7.16Zm33.53-12.32c-.76-1.95-1.9-2.6-3.15-2.6-1.14,0-2.28,.65-2.28,1.74s.65,1.63,1.9,2.06l3.58,1.25c4.01,1.46,8.08,2.93,8.08,8.57s-5.7,8.95-11.56,8.95c-5.26,0-10.2-3.09-11.39-8.03l6.73-2.12c.71,1.57,1.95,3.36,4.67,3.36,1.84,0,3.04-1.19,3.04-2.28,0-.54-.43-1.25-1.79-1.79l-3.31-1.19c-5.64-2.06-8.3-4.94-8.3-8.95,0-5.26,4.88-8.36,10.25-8.36s9.11,2.98,10.74,7.49l-7.22,1.9ZM276.81,0V7.22h-8.57V0s8.57,0,8.57,0Zm0,10.15v28.21h-8.57V10.15h8.57Zm22.84-.43c5.26,0,10.63,3.53,10.63,12.48v16.17h-8.57v-15.57c0-4.29-1.46-5.64-4.18-5.64-3.85,0-6.08,3.74-6.62,5.37v15.84h-8.57V10.15h8.57v4.88c.54-1.36,3.42-5.32,8.73-5.32h0Zm36.13,.43h8.57v28.21c0,8.57-8.68,11.18-14.97,11.18-2.98,0-5.7-.49-7.43-1.41v-7c1.74,.92,4.34,1.3,7.43,1.3,5.05,0,6.4-2.6,6.4-4.07v-2.82c-.38,.98-2.93,3.36-7.27,3.36-6.46,0-13.89-4.61-13.89-14.7s7.43-14.54,13.89-14.54c4.34,0,6.89,2.5,7.27,3.09v-2.6h0Zm-6.02,21.21c3.53,0,6.4-2.44,6.4-7.16s-2.88-7-6.4-7-6.84,2.5-6.84,7,3.15,7.16,6.84,7.16Z"/></g></g></svg>